<svg width="82" height="82" viewBox="0 0 82 82" fill="none" xmlns="http://www.w3.org/2000/svg">
<g clip-path="url(#clip0_153_8559)">
<rect width="82" height="82" rx="41" fill="url(#paint0_linear_153_8559)"/>
<g clip-path="url(#clip1_153_8559)">
<path d="M41 1.92187C48.7289 1.92187 56.2843 4.21377 62.7107 8.50773C69.137 12.8017 74.1458 18.9049 77.1035 26.0454C80.0612 33.186 80.8351 41.0434 79.3273 48.6238C77.8194 56.2042 74.0976 63.1672 68.6324 68.6324C63.1672 74.0976 56.2042 77.8194 48.6238 79.3272C41.0434 80.8351 33.1861 80.0612 26.0455 77.1035C18.9049 74.1457 12.8017 69.137 8.50774 62.7106C4.21379 56.2843 1.92189 48.7289 1.92189 41C1.93207 30.639 6.05248 20.7052 13.3788 13.3788C20.7052 6.05247 30.639 1.93205 41 1.92187ZM41 0C32.891 0 24.9641 2.40461 18.2216 6.90975C11.4792 11.4149 6.22415 17.8182 3.12096 25.31C0.0177645 32.8017 -0.794172 41.0455 0.787822 48.9987C2.36982 56.9519 6.27469 64.2574 12.0086 69.9914C17.7426 75.7253 25.0481 79.6302 33.0013 81.2122C40.9545 82.7942 49.1983 81.9822 56.69 78.8791C64.1818 75.7759 70.5851 70.5208 75.0903 63.7784C79.5954 57.036 82 49.109 82 41C82 30.1261 77.6804 19.6976 69.9914 12.0086C62.3024 4.31963 51.8739 0 41 0Z" fill="#2E2F42"/>
<path d="M40.9997 60.7377C40.404 60.7377 39.8018 60.7377 39.1804 60.6736C34.5222 60.3295 30.0439 58.7313 26.2205 56.0483C26.1109 55.9802 26.0162 55.8908 25.9419 55.7853C25.8676 55.6798 25.8153 55.5604 25.7881 55.4343C25.761 55.3082 25.7595 55.1779 25.7838 55.0511C25.8081 54.9244 25.8576 54.8039 25.9295 54.6967C26.0013 54.5896 26.094 54.498 26.2021 54.4275C26.3101 54.3569 26.4312 54.3088 26.5582 54.2861C26.6852 54.2634 26.8155 54.2664 26.9413 54.2951C27.0671 54.3238 27.1858 54.3776 27.2904 54.4531C30.8279 56.9377 34.9719 58.4187 39.2829 58.7389C44.7636 59.0955 50.2035 57.5848 54.7155 54.4531C54.9248 54.3095 55.1823 54.2545 55.432 54.3001C55.6816 54.3458 55.9031 54.4883 56.048 54.6966C56.1208 54.7996 56.1723 54.9161 56.1995 55.0393C56.2266 55.1625 56.229 55.2899 56.2063 55.414C56.1836 55.5381 56.1364 55.6564 56.0674 55.762C55.9985 55.8676 55.9091 55.9584 55.8046 56.0291C51.4557 59.0523 46.296 60.6933 40.9997 60.7377Z" fill="#2E2F42"/>
<path d="M23.6191 38.841C23.4604 38.8399 23.3043 38.8004 23.1642 38.7257C22.9451 38.605 22.7818 38.4036 22.7088 38.1644C22.6358 37.9251 22.659 37.6668 22.7734 37.4444C23.2871 36.4841 24.0518 35.6813 24.986 35.1215C25.9202 34.5618 26.9888 34.2661 28.0778 34.2661C29.1669 34.2661 30.2355 34.5618 31.1697 35.1215C32.1038 35.6813 32.8685 36.4841 33.3822 37.4444C33.5028 37.6695 33.5291 37.9334 33.4552 38.1779C33.3813 38.4223 33.2133 38.6275 32.9882 38.7481C32.7631 38.8687 32.4993 38.895 32.2548 38.8211C32.0103 38.7472 31.8052 38.5792 31.6845 38.3541C31.335 37.7005 30.8146 37.154 30.1789 36.773C29.5431 36.392 28.8158 36.1908 28.0746 36.1908C27.3334 36.1908 26.6061 36.392 25.9704 36.773C25.3346 37.154 24.8142 37.7005 24.4647 38.3541C24.3795 38.5029 24.2564 38.6264 24.1078 38.712C23.9592 38.7975 23.7905 38.8421 23.6191 38.841Z" fill="#2E2F42"/>
<path d="M59.2718 38.8412C59.0984 38.8404 58.9285 38.7929 58.7797 38.7039C58.631 38.6149 58.5089 38.4875 58.4262 38.3351C58.0767 37.6815 57.5563 37.135 56.9205 36.754C56.2848 36.373 55.5575 36.1718 54.8163 36.1718C54.0751 36.1718 53.3478 36.373 52.712 36.754C52.0763 37.135 51.5559 37.6815 51.2064 38.3351C51.1496 38.4514 51.07 38.555 50.9722 38.6397C50.8744 38.7245 50.7606 38.7886 50.6374 38.8283C50.5143 38.868 50.3844 38.8824 50.2555 38.8706C50.1267 38.8589 50.0015 38.8212 49.8876 38.7599C49.7736 38.6986 49.6732 38.615 49.5924 38.5139C49.5116 38.4129 49.452 38.2966 49.4172 38.172C49.3824 38.0473 49.3732 37.917 49.39 37.7887C49.4068 37.6604 49.4494 37.5369 49.5151 37.4254C50.0278 36.4649 50.7918 35.6617 51.7255 35.1017C52.6592 34.5417 53.7275 34.2459 54.8163 34.2459C55.905 34.2459 56.9734 34.5417 57.9071 35.1017C58.8408 35.6617 59.6048 36.4649 60.1174 37.4254C60.2319 37.6478 60.2551 37.9061 60.1821 38.1453C60.1091 38.3846 59.9457 38.586 59.7267 38.7067C59.5884 38.7881 59.4322 38.8343 59.2718 38.8412Z" fill="#2E2F42"/>
</g>
</g>
<rect x="0.5" y="0.5" width="81" height="81" rx="40.5" stroke="#E2E2E2"/>
<defs>
<linearGradient id="paint0_linear_153_8559" x1="41" y1="0" x2="41" y2="82" gradientUnits="userSpaceOnUse">
<stop stop-color="#6CFFB8"/>
<stop offset="1" stop-color="#25D07D"/>
</linearGradient>
<clipPath id="clip0_153_8559">
<rect width="82" height="82" rx="41" fill="white"/>
</clipPath>
<clipPath id="clip1_153_8559">
<rect width="82" height="82" fill="white"/>
</clipPath>
</defs>
</svg>
