<svg width="62" height="80" viewBox="0 0 62 80" fill="none" xmlns="http://www.w3.org/2000/svg">
<g clip-path="url(#clip0_153_8638)">
<path d="M8.07262 13.1839H7.59816V9.23792C7.7664 9.22769 7.92456 9.22769 8.07262 9.22769C9.49265 9.22769 10.1623 9.9058 10.1623 11.1053C10.1623 12.3047 9.57004 13.1839 8.07262 13.1839ZM47.1974 11.1053C47.1974 9.9058 46.5278 9.22769 45.1077 9.22769C44.9597 9.22769 44.8015 9.22769 44.6333 9.23792V13.1839H45.1077C46.6052 13.1839 47.1974 12.3456 47.1974 11.1053ZM38.334 67.5179C38.1826 66.9898 37.8427 64.0047 37.8427 64.0047H37.6307C37.6307 64.0047 37.2909 66.9898 37.1394 67.5179C36.9914 68.0461 36.6481 68.271 36.3015 68.3698C35.7766 68.5164 32.8289 68.8673 32.8289 68.8673V69.0786C32.8289 69.0786 35.7732 69.4296 36.3015 69.5761C36.6515 69.6715 36.9914 69.8964 37.1394 70.428C37.2909 70.9562 37.6307 73.9412 37.6307 73.9412H37.8427C37.8427 73.9412 38.1826 70.9562 38.334 70.428C38.4821 69.8998 38.8253 69.6749 39.1753 69.5761C39.6968 69.4296 42.6446 69.0786 42.6446 69.0786V68.8673C42.6446 68.8673 39.6968 68.5164 39.1753 68.3698C38.8253 68.271 38.4854 68.0495 38.334 67.5179ZM62 1.72077V48.5888C62 65.8925 48.0891 79.9999 31.0017 79.9999C13.9142 79.9999 0 65.8925 0 48.5888V1.72077C4.03799 1.21645 16.9798 -6.10352e-05 31.0017 -6.10352e-05C45.0236 -6.10352e-05 57.8375 1.14148 62 1.72077ZM4.34084 51.9861C7.73948 54.1772 12.4707 55.2608 16.4346 55.2608C22.4411 55.2608 26.0551 53.4514 30.0157 51.4511C35.4603 48.7012 39.9761 45.8014 47.0695 45.8388C51.3633 45.8627 55.1556 46.9974 57.8812 48.4661C57.8779 47.3211 57.8039 46.1898 57.6625 45.0824C54.2672 42.9083 49.5495 41.7906 45.6024 41.7906C39.5959 41.7906 35.992 43.6512 32.028 45.6446C26.9401 48.2037 22.0744 51.2774 15.0011 51.2774C10.6939 51.2774 4.13894 48.6092 4.13894 48.6194C4.13894 49.7508 4.20961 50.8991 4.34084 51.993V51.9861ZM23.4742 26.3985C23.629 25.8601 23.9318 23.3522 24.0563 22.3265C21.896 22.9126 19.8434 23.7611 17.9321 24.8413C18.0397 25.7545 18.1811 26.9369 18.3291 28.0683C19.3151 27.9524 21.8556 27.6423 22.3974 27.4924C22.8449 27.3663 23.2858 27.0801 23.4742 26.3985ZM23.4742 30.1162C23.2858 29.4381 22.8449 29.1485 22.3974 29.0224C21.8657 28.8759 19.3958 28.5624 18.3796 28.4363C18.568 29.8572 18.7598 31.1317 18.8877 31.5883C19.2343 32.8184 20.0251 33.3364 20.8394 33.5613C21.3004 33.6908 22.606 33.8884 24.0429 34.0861C23.915 33.0025 23.6223 30.6342 23.4742 30.1162ZM4.35094 45.2016C7.29867 46.3909 10.6771 46.9838 13.4701 46.9838C14.7891 46.9838 16.0477 46.8679 17.2456 46.6669C17.1379 45.6923 16.438 39.4735 16.1183 38.3421C15.7751 37.1154 14.981 36.5941 14.1734 36.3692C13.3254 36.134 9.66763 35.6672 7.5174 35.4014C5.88537 38.3694 4.78502 41.6816 4.35094 45.1982V45.2016ZM14.17 33.5647C14.9776 33.3398 15.7717 32.8218 16.115 31.5917C16.3404 30.8046 16.7442 27.5878 17.0067 25.3865C13.3557 27.6491 10.2801 30.7671 8.05243 34.4643C10.2262 34.1951 13.3859 33.7794 14.17 33.5647ZM44.6501 50.3335C44.714 50.8889 45.4745 57.6291 45.8043 58.8047C46.1509 60.0349 46.9417 60.5528 47.756 60.7777C48.6208 61.0197 52.4199 61.5035 54.5465 61.7625C56.1819 58.7706 57.2722 55.4312 57.6928 51.8839C54.7316 50.6776 51.3262 50.0506 48.5299 50.0506C47.1133 50.0506 45.8312 50.1529 44.6501 50.3369V50.3335ZM55.2599 14.5435C55.2599 15.1433 54.8258 15.4636 53.7625 15.4636C52.8169 15.4636 51.3565 15.1433 50.4884 14.7037L50.8047 16.9016C51.6728 17.2219 52.854 17.3821 53.8029 17.3821C56.2088 17.3821 58.1807 16.5813 58.1807 14.1823C58.1807 10.986 53.6447 11.5857 53.6447 10.066C53.6447 9.5446 54.1562 9.30607 54.984 9.30607C55.8892 9.30607 56.8785 9.50712 57.5481 9.78654L57.3126 7.70791C56.5622 7.54775 55.8925 7.42849 54.671 7.42849C52.3425 7.42849 50.7643 8.35876 50.7643 10.3079C50.7643 13.6644 55.2599 12.9863 55.2599 14.5435ZM31.0118 21.403C28.737 21.403 26.5296 21.6893 24.4198 22.2311C24.5308 23.1886 24.8538 25.8465 25.012 26.402C25.2038 27.0801 25.6412 27.3697 26.0922 27.4958C26.7652 27.6832 30.5508 28.116 30.5508 28.116V28.3886C30.5508 28.3886 26.7652 28.8418 26.0922 29.0292C25.6412 29.1553 25.2038 29.4415 25.012 30.123C24.8606 30.6512 24.5645 33.091 24.4366 34.1474C26.6743 34.4473 29.0803 34.7267 29.0803 34.7267V35.2174C29.0803 35.2174 22.0542 36.0352 20.8394 36.376C20.0284 36.6009 19.2343 37.1222 18.8877 38.349C18.568 39.4803 17.8647 45.6514 17.7604 46.5783C22.707 45.6651 26.9435 43.0651 30.1201 41.5112C34.6392 39.3031 38.7748 37.4902 44.4213 37.4902C49.3274 37.4902 53.6582 39.0816 56.8347 41.0614C53.601 29.7107 43.2637 21.4064 31.0151 21.4064L31.0118 21.403ZM41.6115 17.181H44.4886V14.9013H45.5149C48.1968 14.9013 49.8928 13.5042 49.8928 11.0644C49.8928 8.38602 48.079 7.42849 45.1212 7.42849C43.9771 7.42849 42.5975 7.50686 41.6115 7.62953V17.1844V17.181ZM36.564 17.181H39.4445V7.62613H36.564V17.181ZM29.898 17.181H35.1036L35.5377 15.2625H32.7784V7.62953H29.898V17.1844V17.181ZM24.8909 17.181H27.7713V7.62613H24.8909V17.181ZM14.0051 17.181H16.8855V13.4224H19.8837V17.181H22.7642V7.62613H19.8837V11.4222H16.8855V7.62613H14.0051V17.181ZM4.57639 17.181H7.45683V14.9013H8.48315C11.165 14.9013 12.861 13.5042 12.861 11.0644C12.861 8.38602 11.0473 7.42849 8.08944 7.42849C6.94535 7.42849 5.5657 7.50686 4.57976 7.62953V17.1844L4.57639 17.181ZM31.0118 75.829C35.7261 75.829 40.1545 74.5989 44.0074 72.4385C43.755 70.2849 43.2805 66.4275 43.0349 65.5552C42.6917 64.3284 41.8975 63.8071 41.0899 63.5822C39.8684 63.2448 32.8457 62.4236 32.8457 62.4236V61.9329C32.8457 61.9329 39.8718 61.1151 41.0899 60.7743C41.8975 60.5494 42.6917 60.0315 43.0349 58.8013C43.3647 57.6393 44.1083 51.1104 44.1857 50.4084C39.3671 51.3114 36.066 53.5604 31.9237 55.7072C27.5223 57.9869 23.2252 59.6225 17.6359 59.6225C12.7062 59.6225 8.32163 58.0005 5.14507 56.0105C8.32499 67.4464 18.7026 75.829 31.0118 75.829ZM54.0317 62.6621C51.8579 62.9313 48.5535 63.3607 47.756 63.5822C46.945 63.8071 46.1509 64.3284 45.8043 65.5552C45.5755 66.3594 45.1548 69.7158 44.8957 71.9205C48.6342 69.634 51.7738 66.448 54.0317 62.6621Z" fill="#0B5ED7"/>
</g>
<defs>
<clipPath id="clip0_153_8638">
<rect width="62" height="80" fill="white"/>
</clipPath>
</defs>
</svg>
