<svg width="82" height="82" viewBox="0 0 82 82" fill="none" xmlns="http://www.w3.org/2000/svg">
<g clip-path="url(#clip0_153_8551)">
<rect width="82" height="82" rx="41" fill="#E43404"/>
<g clip-path="url(#clip1_153_8551)">
<path d="M41 1.92187C48.7289 1.92187 56.2843 4.21377 62.7107 8.50773C69.137 12.8017 74.1458 18.9049 77.1035 26.0454C80.0612 33.186 80.8351 41.0434 79.3273 48.6238C77.8194 56.2042 74.0976 63.1672 68.6324 68.6324C63.1672 74.0976 56.2042 77.8194 48.6238 79.3272C41.0434 80.8351 33.1861 80.0612 26.0455 77.1035C18.9049 74.1457 12.8017 69.137 8.50774 62.7106C4.21379 56.2843 1.92189 48.7289 1.92189 41C1.93207 30.639 6.05248 20.7052 13.3788 13.3788C20.7052 6.05247 30.639 1.93205 41 1.92187ZM41 0C32.891 0 24.9641 2.40461 18.2216 6.90975C11.4792 11.4149 6.22415 17.8182 3.12096 25.31C0.0177645 32.8017 -0.794172 41.0455 0.787822 48.9987C2.36982 56.9519 6.27469 64.2574 12.0086 69.9914C17.7426 75.7253 25.0481 79.6302 33.0013 81.2122C40.9545 82.7942 49.1983 81.9822 56.69 78.8791C64.1818 75.7759 70.5851 70.5208 75.0903 63.7784C79.5954 57.036 82 49.109 82 41C82 30.1261 77.6804 19.6976 69.9914 12.0086C62.3024 4.31963 51.8739 0 41 0Z" fill="#2E2F42"/>
<path d="M59.2706 33.7122C59.4293 33.7132 59.5854 33.7528 59.7254 33.8275C59.9445 33.9482 60.1079 34.1496 60.1809 34.3888C60.2538 34.628 60.2306 34.8863 60.1162 35.1087C59.6026 36.069 58.8379 36.8719 57.9037 37.4317C56.9695 37.9914 55.9009 38.287 54.8118 38.287C53.7228 38.287 52.6542 37.9914 51.72 37.4317C50.7858 36.8719 50.0211 36.069 49.5075 35.1087C49.3868 34.8836 49.3606 34.6198 49.4345 34.3753C49.5083 34.1308 49.6763 33.9257 49.9014 33.8051C50.1266 33.6844 50.3904 33.6582 50.6349 33.7321C50.8794 33.8059 51.0845 33.9739 51.2051 34.1991C51.5546 34.8527 52.075 35.3991 52.7108 35.7801C53.3466 36.1611 54.0738 36.3624 54.815 36.3624C55.5562 36.3624 56.2835 36.1611 56.9193 35.7801C57.5551 35.3991 58.0755 34.8527 58.425 34.1991C58.5101 34.0502 58.6333 33.9267 58.7819 33.8412C58.9305 33.7556 59.0991 33.7111 59.2706 33.7122Z" fill="#2E2F42"/>
<path d="M23.6198 33.712C23.7932 33.7128 23.9631 33.7602 24.1119 33.8493C24.2606 33.9383 24.3827 34.0657 24.4654 34.2181C24.8149 34.8717 25.3353 35.4181 25.9711 35.7991C26.6068 36.1801 27.3341 36.3814 28.0753 36.3814C28.8165 36.3814 29.5438 36.1801 30.1796 35.7991C30.8153 35.4181 31.3358 34.8717 31.6852 34.2181C31.742 34.1018 31.8216 33.9982 31.9194 33.9134C32.0172 33.8287 32.131 33.7645 32.2542 33.7249C32.3773 33.6852 32.5072 33.6708 32.6361 33.6826C32.7649 33.6943 32.8901 33.732 33.004 33.7932C33.118 33.8545 33.2184 33.9382 33.2992 34.0392C33.38 34.1403 33.4396 34.2566 33.4744 34.3812C33.5092 34.5058 33.5184 34.6362 33.5016 34.7645C33.4848 34.8927 33.4422 35.0163 33.3765 35.1278C32.8638 36.0883 32.0998 36.8914 31.1661 37.4514C30.2324 38.0114 29.1641 38.3073 28.0753 38.3073C26.9866 38.3073 25.9182 38.0114 24.9845 37.4514C24.0508 36.8914 23.2868 36.0883 22.7742 35.1277C22.6597 34.9053 22.6365 34.6471 22.7095 34.4078C22.7825 34.1686 22.9459 33.9672 23.1649 33.8465C23.3032 33.7651 23.4594 33.7189 23.6198 33.712Z" fill="#2E2F42"/>
<path d="M40.7669 54.2711C41.3626 54.2711 41.9648 54.2711 42.5862 54.3351C47.2444 54.6792 51.7227 56.2775 55.5461 58.9604C55.6557 59.0285 55.7505 59.118 55.8247 59.2235C55.899 59.3289 55.9513 59.4483 55.9785 59.5744C56.0056 59.7006 56.0071 59.8309 55.9828 59.9576C55.9585 60.0843 55.909 60.2048 55.8371 60.312C55.7653 60.4191 55.6726 60.5107 55.5645 60.5813C55.4565 60.6518 55.3354 60.6999 55.2084 60.7226C55.0814 60.7454 54.9511 60.7423 54.8253 60.7136C54.6995 60.6849 54.5808 60.6312 54.4762 60.5556C50.9387 58.071 46.7947 56.5901 42.4837 56.2698C37.003 55.9132 31.5631 57.4239 27.0511 60.5556C26.8418 60.6992 26.5843 60.7542 26.3346 60.7086C26.085 60.663 25.8635 60.5205 25.7186 60.3122C25.6458 60.2091 25.5943 60.0926 25.5671 59.9694C25.54 59.8462 25.5376 59.7189 25.5603 59.5948C25.583 59.4707 25.6302 59.3523 25.6992 59.2467C25.7681 59.1411 25.8575 59.0503 25.962 58.9797C30.3109 55.9564 35.4706 54.3154 40.7669 54.2711Z" fill="#2E2F42"/>
</g>
</g>
<rect x="0.5" y="0.5" width="81" height="81" rx="40.5" stroke="#E2E2E2"/>
<defs>
<clipPath id="clip0_153_8551">
<rect width="82" height="82" rx="41" fill="white"/>
</clipPath>
<clipPath id="clip1_153_8551">
<rect width="82" height="82" fill="white"/>
</clipPath>
</defs>
</svg>
